<svg xmlns="http://www.w3.org/2000/svg" viewBox="0 0 128 128">
  <path d="M 57.52952387243698,39.851854342773294 L 48.47085729384875,6.044450422655899 A 60,60 0 0,1 79.52914270615125,6.044450422655899 L 70.47047612756302,39.851854342773294 A 25,25 0 0,0 57.52952387243698,39.851854342773294 Z" fill="hsl(48, 95%, 58%)" />
  <path d="M 70.47047612756302,39.851854342773294 L 79.52914270615125,6.044450422655899 A 60,60 0 0,1 106.42640687119285,21.573593128807154 L 81.67766952966369,46.32233047033631 A 25,25 0 0,0 70.47047612756302,39.851854342773294 Z" fill="hsl(72, 75%, 50%)" />
  <path d="M 81.67766952966369,46.32233047033631 L 106.42640687119285,21.573593128807154 A 60,60 0 0,1 121.9555495773441,48.47085729384875 L 88.1481456572267,57.52952387243698 A 25,25 0 0,0 81.67766952966369,46.32233047033631 Z" fill="hsl(95, 65%, 48%)" />
  <path d="M 88.1481456572267,57.52952387243698 L 121.9555495773441,48.47085729384875 A 60,60 0 0,1 121.9555495773441,79.52914270615125 L 88.1481456572267,70.47047612756302 A 25,25 0 0,0 88.1481456572267,57.52952387243698 Z" fill="hsl(160, 60%, 45%)" />
  <path d="M 88.1481456572267,70.47047612756302 L 121.9555495773441,79.52914270615125 A 60,60 0 0,1 106.42640687119285,106.42640687119285 L 81.67766952966369,81.67766952966369 A 25,25 0 0,0 88.1481456572267,70.47047612756302 Z" fill="hsl(185, 70%, 50%)" />
  <path d="M 81.67766952966369,81.67766952966369 L 106.42640687119285,106.42640687119285 A 60,60 0 0,1 79.52914270615125,121.9555495773441 L 70.47047612756302,88.1481456572267 A 25,25 0 0,0 81.67766952966369,81.67766952966369 Z" fill="hsl(205, 75%, 55%)" />
  <path d="M 70.47047612756302,88.1481456572267 L 79.52914270615125,121.9555495773441 A 60,60 0 0,1 48.47085729384875,121.9555495773441 L 57.52952387243698,88.1481456572267 A 25,25 0 0,0 70.47047612756302,88.1481456572267 Z" fill="hsl(235, 60%, 58%)" />
  <path d="M 57.52952387243698,88.1481456572267 L 48.47085729384875,121.9555495773441 A 60,60 0 0,1 21.573593128807154,106.42640687119285 L 46.32233047033631,81.67766952966369 A 25,25 0 0,0 57.52952387243698,88.1481456572267 Z" fill="hsl(265, 55%, 55%)" />
  <path d="M 46.32233047033631,81.67766952966369 L 21.573593128807154,106.42640687119285 A 60,60 0 0,1 6.044450422655906,79.52914270615126 L 39.851854342773294,70.47047612756303 A 25,25 0 0,0 46.32233047033631,81.67766952966369 Z" fill="hsl(285, 50%, 52%)" />
  <path d="M 39.851854342773294,70.47047612756303 L 6.044450422655906,79.52914270615126 A 60,60 0 0,1 6.044450422655899,48.47085729384875 L 39.851854342773294,57.52952387243698 A 25,25 0 0,0 39.851854342773294,70.47047612756303 Z" fill="hsl(315, 60%, 55%)" />
  <path d="M 39.851854342773294,57.52952387243698 L 6.044450422655899,48.47085729384875 A 60,60 0 0,1 21.57359312880714,21.57359312880716 L 46.32233047033631,46.32233047033631 A 25,25 0 0,0 39.851854342773294,57.52952387243698 Z" fill="hsl(350, 70%, 58%)" />
  <path d="M 46.32233047033631,46.32233047033631 L 21.57359312880714,21.57359312880716 A 60,60 0 0,1 48.470857293848766,6.044450422655899 L 57.52952387243698,39.851854342773294 A 25,25 0 0,0 46.32233047033631,46.32233047033631 Z" fill="hsl(28, 85%, 55%)" />
</svg>
